<?xml version="1.0" encoding="utf-8"?>
<svg viewBox="399.175 164.105 122.525 45.816" fill="none" xmlns="http://www.w3.org/2000/svg">
  <path d="M 400.417 196.943 L 404.46 193.729 C 406.886 198.349 411.252 201.04 416.265 201.048 C 421.278 201.056 425.159 198.593 425.159 194.191 C 425.159 189.521 420.685 188.709 414.81 187.304 C 408.718 185.845 402.681 184.171 402.681 176.925 C 402.681 170.161 408.557 165.769 415.888 165.781 C 422.626 165.792 427.477 169.02 429.795 173.372 L 425.86 176.479 C 423.866 172.772 420.793 170.244 415.78 170.236 C 411.09 170.228 407.694 172.8 407.694 176.504 C 407.694 180.583 411.306 181.448 416.75 182.745 C 423.165 184.258 430.227 185.611 430.227 193.77 C 430.227 200.963 423.812 205.515 416.157 205.503 C 409.473 205.492 403.058 202.154 400.417 196.943 Z M 437.499 188.145 L 437.499 204.947 L 432.648 204.939 L 432.648 176.865 L 437.499 176.873 L 437.499 180.684 C 439.008 178.378 441.704 176.343 445.639 176.349 C 449.412 176.355 452.054 178.238 453.455 181.139 C 455.018 178.833 458.037 176.369 462.458 176.376 C 468.279 176.385 471.783 180.524 471.783 186.482 L 471.783 205.001 L 466.931 204.993 L 466.931 187.763 C 466.931 183.844 465.314 180.889 461.325 180.883 C 458.091 180.878 454.641 183.61 454.641 188.172 L 454.641 204.974 L 449.79 204.966 L 449.79 187.735 C 449.79 183.817 448.173 180.862 444.184 180.856 C 440.949 180.851 437.499 183.582 437.499 188.145 Z M 474.43 190.995 C 474.43 182.299 479.82 176.403 487.529 176.415 C 490.439 176.42 493.027 177.283 495.075 178.789 L 497.339 176.002 L 500.196 178.261 L 497.717 181.37 C 499.549 183.842 500.628 187.172 500.628 191.037 C 500.628 199.732 495.237 205.629 487.529 205.616 C 484.671 205.612 482.138 204.803 480.036 203.296 L 477.772 206.137 L 474.915 203.878 L 477.448 200.769 C 475.508 198.243 474.43 194.913 474.43 190.995 Z M 479.335 191.003 C 479.335 193.311 479.766 195.298 480.521 196.909 L 492.38 182.167 C 491.032 181.091 489.415 180.498 487.529 180.495 C 482.569 180.487 479.335 184.561 479.335 191.003 Z M 495.722 191.029 C 495.722 188.774 495.345 186.841 494.59 185.23 L 482.785 199.865 C 484.078 200.941 485.695 201.48 487.529 201.483 C 492.488 201.491 495.722 197.417 495.722 191.029 Z M 518.171 176.893 L 518.171 181.778 C 517.363 181.616 516.716 181.561 515.799 181.56 C 511.702 181.553 508.414 184.769 508.414 189.707 L 508.414 205.059 L 503.563 205.051 L 503.563 176.978 L 508.414 176.985 L 508.414 181.763 C 509.654 178.92 512.403 176.777 516.23 176.783 C 516.985 176.784 517.686 176.839 518.171 176.893 Z" fill="black" style=""/>
</svg>